<svg xmlns="http://www.w3.org/2000/svg" viewBox="0 0 240 140"><g stroke-linecap="round" stroke-linejoin="round"><circle cx="40" cy="104" r="31" fill="#4f7fd6" opacity=".1"/><path fill="none" stroke="#1e2240" stroke-width="6.9" d="M40 95.6V81m4.2 15.7 4.2-7.3m-1.1 10.4 12.6-7.3M48.4 104h8.4m-9.5 4.2 12.6 7.3m-15.7-4.2 4.2 7.3m-8.4-6.2V127m-4.2-15.7-4.2 7.3m1.1-10.4-12.6 7.3M31.6 104h-8.4m9.5-4.2-12.6-7.3m15.7 4.2-4.2-7.3"/><path fill="none" stroke="#4f7fd6" stroke-width="3.9" d="M40 95.6V81m7.3 18.8 12.6-7.3m-12.6 15.7 12.6 7.3M40 112.4V127m-7.3-18.8-12.6 7.3m12.6-15.7-12.6-7.3"/><path fill="none" stroke="#fff" stroke-width="3.9" d="m44.2 96.7 4.2-7.3m0 14.6h8.4m-12.6 7.3 4.2 7.3m-12.6-7.3-4.2 7.3m0-14.6h-8.4m12.6-7.3-4.2-7.3"/><g fill="#4f7fd6" stroke="#1e2240" stroke-width="1.5"><circle cx="40" cy="76" r="2.5"/><circle cx="50.9" cy="85.1" r="2.5" fill="#fff"/><circle cx="64.3" cy="90" r="2.5"/><circle cx="61.8" cy="104" r="2.5" fill="#fff"/><circle cx="64.3" cy="118" r="2.5"/><circle cx="50.9" cy="122.9" r="2.5" fill="#fff"/><circle cx="40" cy="132" r="2.5"/><circle cx="29.1" cy="122.9" r="2.5" fill="#fff"/><circle cx="15.8" cy="118" r="2.5"/><circle cx="18.2" cy="104" r="2.5" fill="#fff"/><circle cx="15.8" cy="90" r="2.5"/><circle cx="29.1" cy="85.1" r="2.5" fill="#fff"/></g><circle cx="40" cy="104" r="6.2" fill="#fff" stroke="#1e2240" stroke-width="2"/><circle cx="122" cy="74" r="41" fill="#d63a3a" opacity=".1"/><path fill="none" stroke="#1e2240" stroke-width="8.3" d="M122 62.6V41m5 22.7 5.7-11.9m-1.8 15 16.9-13.4m-14.7 18 13-2.9m-13 8 21 4.8m-23.2-.2 10.4 8.3M127 84.3l9.3 19.4M122 85.4v13.2m-5-14.3-9.3 19.4m5.4-22.6-10.4 8.3m8.2-12.9-21 4.8m21-9.8-13-3m15.2-1.6L96.2 53.4m20.9 10.3-5.8-11.9"/><path fill="none" stroke="#d63a3a" stroke-width="5.3" d="M122 62.6V41m9 25.9 16.8-13.5m-14.7 23.1 21 4.8m-27.1 3 9.3 19.4m-19.2-19.4-9.4 19.4m3.2-27.2-21 4.8M113 67 96.2 53.4"/><path fill="none" stroke="#f2b632" stroke-width="5.3" d="m127 63.7 5.7-11.9m.4 19.7 13-3m-15.2 12.6 10.4 8.3m-19.3-4v13.2m-9-17.5-10.3 8.3m8.2-18-13-2.9m19.2-4.8-5.8-11.9"/><g fill="#d63a3a" stroke="#1e2240" stroke-width="1.5"><circle cx="122" cy="36" r="3.4"/><circle cx="134.9" cy="47.3" r="3.4" fill="#f2b632"/><circle cx="151.7" cy="50.3" r="3.4"/><circle cx="150.9" cy="67.4" r="3.4" fill="#f2b632"/><circle cx="159.1" cy="82.5" r="3.4"/><circle cx="145.2" cy="92.5" r="3.4" fill="#f2b632"/><circle cx="138.5" cy="108.2" r="3.4"/><circle cx="122" cy="103.6" r="3.4" fill="#f2b632"/><circle cx="105.5" cy="108.2" r="3.4"/><circle cx="98.8" cy="92.5" r="3.4" fill="#f2b632"/><circle cx="85" cy="82.5" r="3.4"/><circle cx="93.1" cy="67.4" r="3.4" fill="#f2b632"/><circle cx="92.3" cy="50.3" r="3.4"/><circle cx="109.1" cy="47.3" r="3.4" fill="#f2b632"/></g><circle cx="122" cy="74" r="8.4" fill="#fff" stroke="#1e2240" stroke-width="2"/><circle cx="204" cy="36" r="33" fill="#27407a" opacity=".1"/><path fill="none" stroke="#1e2240" stroke-width="7.2" d="M204 27V11m4.5 17.2 4.7-8.1m-1.4 11.4 13.8-8M213 36h9.4m-10.6 4.5 13.9 8m-17.2-4.7 4.7 8.1M204 45v16m-4.5-17.2-4.7 8.1m1.4-11.4-13.8 8M195 36h-9.4m10.6-4.5-13.9-8m17.2 4.7-4.7-8.1"/><path fill="none" stroke="#27407a" stroke-width="4.2" d="M204 27V11m7.8 20.5 13.8-8m-13.8 17 13.8 8M204 45v16m-7.8-20.5-13.8 8m13.8-17-13.8-8"/><path fill="none" stroke="#d63a3a" stroke-width="4.2" d="m208.5 28.2 4.7-8.1M213 36h9.4m-13.9 7.8 4.7 8.1m-13.7-8.1-4.7 8.1M195 36h-9.4m13.9-7.8-4.7-8.1"/><g fill="#27407a" stroke="#1e2240" stroke-width="1.5"><circle cx="204" cy="6" r="2.7"/><circle cx="215.7" cy="15.7" r="2.7" fill="#d63a3a"/><circle cx="230" cy="21" r="2.7"/><circle cx="227.4" cy="36" r="2.7" fill="#d63a3a"/><circle cx="230" cy="51" r="2.7"/><circle cx="215.7" cy="56.3" r="2.7" fill="#d63a3a"/><circle cx="204" cy="66" r="2.7"/><circle cx="192.3" cy="56.3" r="2.7" fill="#d63a3a"/><circle cx="178" cy="51" r="2.7"/><circle cx="180.6" cy="36" r="2.7" fill="#d63a3a"/><circle cx="178" cy="21" r="2.7"/><circle cx="192.3" cy="15.7" r="2.7" fill="#d63a3a"/></g><circle cx="204" cy="36" r="6.6" fill="#fff" stroke="#1e2240" stroke-width="2"/><path fill="#fff" stroke="#27407a" stroke-width="1.4" d="M86 113q.9 4.1 5 5-4.1.9-5 5-.9-4.1-5-5 4.1-.9 5-5"/><path fill="#f2b632" stroke="#1e2240" stroke-width="1.4" d="M170 86.5q1 4.5 5.5 5.5-4.5 1-5.5 5.5-1-4.5-5.5-5.5 4.5-1 5.5-5.5"/><path fill="#fff" stroke="#27407a" stroke-width="1.3" d="M160 12q.7 3.3 4 4-3.3.7-4 4-.7-3.3-4-4 3.3-.7 4-4"/><path fill="#f2b632" stroke="#1e2240" stroke-width="1.3" d="M80 25.5q.8 3.7 4.5 4.5-3.7.8-4.5 4.5-.8-3.7-4.5-4.5 3.7-.8 4.5-4.5"/></g></svg>