<svg xmlns="http://www.w3.org/2000/svg" viewBox="0 0 120 110"><g stroke-linecap="round" stroke-linejoin="round"><path fill="none" stroke="#22324a" stroke-width="6.4" d="M44 38c-8-8 6-16-2-26m20 24c-8-10 8-18-2-30m20 32c-8-8 6-16-2-26"/><path fill="none" stroke="#dde9f5" stroke-width="3" d="M44 38c-8-8 6-16-2-26m20 24c-8-10 8-18-2-30m20 32c-8-8 6-16-2-26"/><path fill="none" stroke="#22324a" stroke-width="13" d="M88 58c24-4 24 34-2 32"/><path fill="none" stroke="#d9534f" stroke-width="7" d="M88 58c24-4 24 34-2 32"/><path fill="#d9534f" stroke="#22324a" stroke-width="3.4" d="M16 46h76l-4 50c0 6-4 10-10 10H30c-6 0-10-4-10-10Z"/><path fill="none" stroke="#b03e3b" stroke-width="5" d="m80 52-3 46c-1 2-3 3-5 3"/><path fill="none" stroke="#ee8a86" stroke-width="3" d="m26 54 2 40"/><path fill="none" stroke="#fff" stroke-width="2.4" d="m22 84 6-4 6 6 6-6 6 6 6-6 6 6 6-6 6 6 6-6 6 6 6-6"/><ellipse cx="54" cy="46" fill="#7a4a32" stroke="#22324a" stroke-width="3.2" rx="38" ry="8"/><ellipse cx="54" cy="47" fill="#5a3524" rx="32" ry="5"/><rect width="14" height="12" x="33" y="36" fill="#fff" stroke="#22324a" stroke-width="2.2" rx="3" transform="rotate(-12 40 42)"/><rect width="11" height="4" x="35" y="43" fill="#dde9f5" rx="2" transform="rotate(-12 40 42)"/><rect width="14" height="12" x="51" y="34" fill="#fff" stroke="#22324a" stroke-width="2.2" rx="3" transform="rotate(8 58 40)"/><rect width="11" height="4" x="53" y="41" fill="#dde9f5" rx="2" transform="rotate(8 58 40)"/><rect width="14" height="12" x="65" y="38" fill="#fff" stroke="#22324a" stroke-width="2.2" rx="3" transform="rotate(-4 72 44)"/><rect width="11" height="4" x="67" y="45" fill="#dde9f5" rx="2" transform="rotate(-4 72 44)"/><rect width="14" height="12" x="43" y="41" fill="#fff" stroke="#22324a" stroke-width="2.2" rx="3" transform="rotate(14 50 47)"/><rect width="11" height="4" x="45" y="48" fill="#dde9f5" rx="2" transform="rotate(14 50 47)"/><circle cx="42" cy="68" r="4.4" fill="#22324a"/><circle cx="40.5" cy="66.2" r="1.7" fill="#fff"/><circle cx="66" cy="68" r="4.4" fill="#22324a"/><circle cx="64.5" cy="66.2" r="1.7" fill="#fff"/><path fill="none" stroke="#22324a" stroke-width="2.4" d="M48 74q6 6 12 0"/><ellipse cx="34" cy="76" fill="#d9534f" fill-opacity=".35" rx="5" ry="3"/><ellipse cx="74" cy="76" fill="#d9534f" fill-opacity=".35" rx="5" ry="3"/></g></svg>