<svg xmlns="http://www.w3.org/2000/svg" viewBox="0 0 160 220"><g stroke-linecap="round" stroke-linejoin="round"><path fill="none" stroke="#5e8fc2" stroke-width="2" d="M40 0v41"/><circle cx="40" cy="42" r="2.6" fill="#d9534f" stroke="#22324a" stroke-width="1.4"/><path fill="none" stroke="#5e8fc2" stroke-width="2" d="M80 0v141"/><circle cx="80" cy="142" r="2.6" fill="#d9534f" stroke="#22324a" stroke-width="1.4"/><path fill="none" stroke="#5e8fc2" stroke-width="2" d="M122 0v75"/><circle cx="122" cy="76" r="2.6" fill="#d9534f" stroke="#22324a" stroke-width="1.4"/><defs><path id="a" fill-rule="evenodd" d="m40 44 5 4.7-1.8 4.9 5.9-.2-3.3 6.5 3.7.7-.5 3.8 3.1-2.3 2.4 2.9 3.9-6.2 2.9 5.2 3.3-3.9 6.6 1.9-1.6 6.6-5.1 1 3.1 5-7.3.3 1.2 3.6L58 80l3.5 1.5-1.2 3.6 7.3.3-3.1 5 5.1 1 1.6 6.6-6.6 1.9-3.3-3.9-2.9 5.2-3.9-6.2-2.4 2.9-3.1-2.3.5 3.8-3.7.7 3.3 6.5-5.9-.2 1.8 4.9-5 4.7-5-4.7 1.8-4.9-5.9.2 3.3-6.5-3.7-.7.5-3.8-3.1 2.3-2.4-2.9-3.9 6.2-2.9-5.2-3.3 3.9L8.8 98l1.6-6.6 5.1-1-3.1-5 7.3-.3-1.2-3.6L22 80l-3.5-1.5 1.2-3.6-7.3-.3 3.1-5-5.1-1L8.8 62l6.6-1.9 3.3 3.9 2.9-5.2 3.9 6.2 2.4-2.9 3.1 2.3-.5-3.8 3.7-.7-3.3-6.5 5.9.2-1.8-4.9zm0 13.7 2 3.6-2 3.6-2-3.6Zm6.5 11.1-.4 4.3-3.2-1.8Zm12.8 0-2.1 3.6h-4.1l2.1-3.5ZM53 80l-4 1.8v-3.6Zm6.3 11.2-4.1-.1-2.1-3.5h4.1Zm-12.8 0-3.6-2.5 3.2-1.8ZM40 102.3l-2-3.6 2-3.6 2 3.6Zm-6.5-11.1.4-4.3 3.2 1.8Zm-12.8 0 2.1-3.6h4.1l-2.1 3.5ZM27 80l4-1.8v3.6Zm-6.3-11.2 4.1.1 2.1 3.5h-4.1Zm12.8 0 3.6 2.5-3.2 1.8Zm10.2 13.4L40 84.3l-3.7-2.1v-4.4l3.7-2.1 3.7 2.1Z"/></defs><use fill="#bfd6ea" href="#a" transform="translate(2.4 2.6)"/><use fill="#fff" stroke="#22324a" stroke-width="2.4" href="#a"/><path fill="none" stroke="#bfd6ea" stroke-width="1.2" d="M40 80V67m0 13 11.2-6.5M40 80l11.2 6.5M40 80v13m0-13-11.2 6.5M40 80l-11.2-6.5"/><defs><path id="b" fill-rule="evenodd" d="m85 144.4 4.3 5.3-2.4 4.6 5.8.7-4.2 5.9 3.6 1.2-1 3.7 3.4-1.9 2 3.2 4.7-5.5 2.1 5.5 3.9-3.4 6.2 2.8-2.5 6.4-5.2.2 2.3 5.4-7.2-.7.7 3.7-3.7 1 3.3 2-1.7 3.3 7.2 1.3-3.8 4.6 4.9 1.7.7 6.8-6.8 1-2.8-4.4-3.5 4.7-3-6.6-2.8 2.5-2.8-2.7v3.8l-3.8.2 2.5 6.9-5.9-1 1.1 5.1-5.6 3.9-4.3-5.3 2.4-4.6-5.8-.7 4.2-5.9-3.6-1.2 1-3.7-3.4 1.9-2-3.2-4.7 5.5-2.1-5.5-3.9 3.4-6.2-2.8 2.5-6.4 5.2-.2-2.3-5.4 7.2.7-.7-3.7 3.7-1-3.3-2 1.7-3.3-7.2-1.3 3.8-4.6-4.9-1.7-.7-6.8 6.8-1 2.8 4.4 3.5-4.7 3 6.6 2.8-2.5 2.8 2.7v-3.8l3.8-.2-2.5-6.9 5.9 1-1.1-5.1zm-1.9 13.5 1.5 3.8-2.5 3.3-1.5-3.8Zm4.9 11.9-1 4.2-2.9-2.2Zm12.7 1.8-2.6 3.2-4.1-.5 2.6-3.1Zm-7.9 10.2-4.1 1.2.5-3.5Zm4.8 11.9-4.1-.6-1.6-3.8 4.1.7ZM84.9 192l-3.2-3 3.3-1.3Zm-8 10.1-1.5-3.8 2.5-3.3 1.5 3.8ZM72 190.2l1-4.2 2.9 2.2Zm-12.7-1.8 2.6-3.2 4.1.5-2.6 3.1Zm7.9-10.2 4.1-1.2-.5 3.5Zm-4.8-11.9 4.1.6 1.6 3.8-4.1-.7Zm12.7 1.7 3.2 3-3.3 1.3Zm8.3 14.7-4 1.6-3.4-2.7.6-4.3 4-1.6 3.4 2.7Z"/></defs><use fill="#5e8fc2" href="#b" transform="translate(2.4 2.6)"/><use fill="#8db8e0" stroke="#22324a" stroke-width="2.4" href="#b"/><path fill="none" stroke="#5e8fc2" stroke-width="1.2" d="m80 180 1.8-12.8M80 180l12-4.9M80 180l10.2 8M80 180l-1.8 12.8M80 180l-12 4.9m12-4.9-10.2-8"/><defs><path id="c" fill-rule="evenodd" d="m118.4 78.2 5.2 3.9-1.2 4.7 5.6-.6-2.6 6.4 3.6.2-.1 3.7 2.7-2.5 2.5 2.5 3.1-6.2 3.2 4.5 2.8-4 6.3 1.2-.8 6.4-4.7 1.4 3.4 4.4-6.9 1.1 1.6 3.2-3.2 1.7 3.5 1.1-.9 3.4 6.9-.4-2.3 5.1 4.8.3 2.2 6.1-6 2.5-3.5-3.3-2.2 5.1-4.3-5.4-2 2.9-3.1-1.8.8 3.5-3.4 1 3.8 5.7-5.5.5 2 4.4-4.1 4.9-5.2-3.9 1.2-4.7-5.6.6 2.6-6.4-3.6-.2.1-3.7-2.7 2.5-2.5-2.5-3.1 6.2-3.2-4.5-2.8 4-6.3-1.2.8-6.4 4.7-1.4-3.4-4.4 6.9-1.1-1.6-3.2 3.2-1.7-3.5-1.1.9-3.4-6.9.4 2.3-5.1-4.8-.3-2.2-6.1 6-2.5 3.5 3.3 2.2-5.1 4.3 5.4 2-2.9 3.1 1.8-.8-3.5 3.4-1-3.8-5.7 5.5-.5-2-4.4zm1.4 12.8 2.2 3.2-1.5 3.6-2.2-3.2Zm7.2 9.8v4.1l-3.1-1.4Zm12.1-1.2-1.7 3.5-3.8.5 1.6-3.5Zm-4.9 11.1-3.6 2.1-.3-3.4Zm7.1 9.9-3.9.3-2.4-3.1 3.9-.3Zm-12.1 1.3-3.6-2 2.8-2Zm-5 11.1-2.2-3.2 1.5-3.6 2.2 3.2Zm-7.2-9.8v-4.1l3.1 1.4Zm-12.1 1.2 1.7-3.5 3.8-.5-1.6 3.5Zm4.9-11.1 3.6-2.1.3 3.4Zm-7.1-9.9 3.9-.3 2.4 3.1-3.9.3Zm12.1-1.3 3.6 2-2.8 2Zm10.9 11.6-3.3 2.4-3.7-1.7-.4-4.1 3.3-2.4 3.7 1.7Z"/></defs><use fill="#bfd6ea" href="#c" transform="translate(2.4 2.6)"/><use fill="#fff" stroke="#22324a" stroke-width="2.4" href="#c"/><path fill="none" stroke="#bfd6ea" stroke-width="1.2" d="m122 112-1.3-12.2M122 112l9.9-7.2M122 112l11.2 5m-11.2-5 1.3 12.2M122 112l-9.9 7.2m9.9-7.2-11.2-5"/></g></svg>