<svg xmlns="http://www.w3.org/2000/svg" viewBox="0 0 180 240"><g stroke-linecap="round" stroke-linejoin="round"><ellipse cx="68" cy="230" fill="#e8b33a" stroke="#22324a" stroke-width="2.8" rx="16" ry="8"/><ellipse cx="112" cy="230" fill="#e8b33a" stroke="#22324a" stroke-width="2.8" rx="16" ry="8"/><path fill="#2e4f86" stroke="#22324a" stroke-width="3.4" d="M90 34c42 0 60 46 60 106 0 56-22 88-60 88s-60-32-60-88C30 80 48 34 90 34"/><path fill="none" stroke="#4a6faa" stroke-width="4" d="M44 90c-4 40-2 90 16 122"/><path fill="#fff" stroke="#bfd6ea" stroke-width="2" d="M90 78c8-14 34-16 38 10 4 18-2 28 0 52 4 50-12 78-38 78s-42-28-38-78c2-24-4-34 0-52 4-26 30-24 38-10"/><path fill="#dde9f5" d="M122 96c4 24-2 36 0 54 2 40-12 62-30 64 20-8 28-28 26-64-2-18 4-32 0-54Z"/><circle cx="72" cy="96" r="6.5" fill="#22324a"/><circle cx="69.7" cy="93.4" r="2.5" fill="#fff"/><circle cx="98" cy="96" r="6.5" fill="#22324a"/><circle cx="95.7" cy="93.4" r="2.5" fill="#fff"/><path fill="#e8b33a" stroke="#22324a" stroke-width="2.4" d="M82 108h16l-8 11Z"/><path fill="none" stroke="#c48f1e" stroke-width="1.4" d="M85 111h10"/><ellipse cx="62" cy="112" fill="#d9534f" fill-opacity=".35" rx="7" ry="4"/><ellipse cx="118" cy="112" fill="#d9534f" fill-opacity=".35" rx="7" ry="4"/><path fill="#d9534f" stroke="#22324a" stroke-width="3.2" d="M44 62c0-40 92-40 92 0Z"/><path fill="none" stroke="#ee8a86" stroke-width="3" d="M58 44c6-6 14-9 22-10"/><path fill="none" stroke="#b03e3b" stroke-width="1.8" d="M70 30q-4 14-2 26m22-30v30m20-26q4 14 2 26"/><rect width="104" height="16" x="38" y="52" fill="#dde9f5" stroke="#22324a" stroke-width="3" rx="8"/><path fill="none" stroke="#bfd6ea" stroke-width="2" d="M48 56v8m8-8v8m8-8v8m8-8v8m8-8v8m8-8v8m8-8v8m8-8v8m8-8v8m8-8v8m8-8v8m8-8v8"/><path fill="#22324a" d="M79.6 16a10.4 10.4 0 1 0 20.8 0 10.4 10.4 0 1 0-20.8 0m-4 4a7.4 7.4 0 1 0 14.8 0 7.4 7.4 0 1 0-14.8 0m14 0a7.4 7.4 0 1 0 14.8 0 7.4 7.4 0 1 0-14.8 0m-6-10a6.4 6.4 0 1 0 12.8 0 6.4 6.4 0 1 0-12.8 0"/><path fill="#c48f1e" d="M82.4 16a7.6 7.6 0 1 0 15.2 0 7.6 7.6 0 1 0-15.2 0m-4 4a4.6 4.6 0 1 0 9.2 0 4.6 4.6 0 1 0-9.2 0m14 0a4.6 4.6 0 1 0 9.2 0 4.6 4.6 0 1 0-9.2 0m-6-10a3.6 3.6 0 1 0 7.2 0 3.6 3.6 0 1 0-7.2 0"/><path fill="#e8b33a" d="M83.8 14.2a5 5 0 1 0 10 0 5 5 0 1 0-10 0m-4 4a2 2 0 1 0 4 0 2 2 0 1 0-4 0m14 0a2 2 0 1 0 4 0 2 2 0 1 0-4 0m-6-10a1 1 0 1 0 2 0 1 1 0 1 0-2 0"/><path fill="#e8b33a" stroke="#22324a" stroke-width="3" d="M42 122c28 14 68 14 96 0l2 14c-30 14-70 14-100 0Z"/><path fill="none" stroke="#d9534f" stroke-width="3.2" d="m58 130 1 13m17-9v12m18-12v12m18-14 1 12m15-16 1 11"/><rect width="88" height="18" x="44" y="150" fill="#d9534f" stroke="#22324a" stroke-width="2.6" rx="3"/><rect width="7" height="12" x="122" y="153" fill="#fff" stroke="#22324a" stroke-width="1.4" rx="1.5"/><path fill="none" stroke="#b03e3b" stroke-width="2" d="M50 164h68"/><path fill="none" stroke="#fff" stroke-width="2.4" d="M54 158h34"/><rect width="82" height="17" x="52" y="168" fill="#2f7a5a" stroke="#22324a" stroke-width="2.6" rx="3"/><rect width="7" height="11" x="124" y="171" fill="#fff" stroke="#22324a" stroke-width="1.4" rx="1.5"/><path fill="none" stroke="#1f5540" stroke-width="2" d="M58 181h62"/><path fill="none" stroke="#e8b33a" stroke-width="2.4" d="M62 175.5h31"/><rect width="90" height="19" x="42" y="185" fill="#8db8e0" stroke="#22324a" stroke-width="2.6" rx="3"/><rect width="7" height="13" x="122" y="188" fill="#fff" stroke="#22324a" stroke-width="1.4" rx="1.5"/><path fill="none" stroke="#5e8fc2" stroke-width="2" d="M48 200h70"/><path fill="none" stroke="#2e4f86" stroke-width="2.4" d="M52 193.5h35"/><path fill="#e8b33a" stroke="#22324a" stroke-width="3" d="m50 132-8 38 16 4 6-38Z"/><path fill="none" stroke="#d9534f" stroke-width="3.2" d="m46 148 14 4m-16 8 14 4"/><path fill="none" stroke="#22324a" stroke-width="2" d="m43 171-2 6m7-5-1 6m6-5v6m5-5 1 6"/><path fill="#2e4f86" stroke="#22324a" stroke-width="3" d="M34 166c-10 10-6 30 8 32 8-6 6-22 2-32Zm112 0c10 10 6 30-8 32-8-6-6-22-2-32Z"/></g></svg>