<svg xmlns="http://www.w3.org/2000/svg" viewBox="0 0 120 110"><defs><radialGradient id="a" cx=".5" cy=".55" r=".65"><stop offset="0" stop-color="#fff0b0"/><stop offset=".6" stop-color="#ffd66b"/><stop offset="1" stop-color="#ffbe45"/></radialGradient></defs><path fill="#7dbb5a" stroke="#2b2140" stroke-linejoin="round" stroke-width="2.8" d="M55.5 16C56 11 54 8 50 5.5l5.5-1c5 1.5 8 5.5 7.5 11.5Z"/><path fill="#7dbb5a" stroke="#2b2140" stroke-linejoin="round" stroke-width="2.6" d="M62 13c8-10 24-10 30-3-8 8-22 10-30 3Z"/><path fill="none" stroke="#4e7a3a" stroke-linecap="round" stroke-width="1.6" d="M64 12.5c8-2.5 16-3.5 23-3"/><g fill="#2b2140" stroke="#2b2140" stroke-width="7"><ellipse cx="40" cy="61.5" rx="25" ry="42"/><ellipse cx="80" cy="61.5" rx="25" ry="42"/><ellipse cx="50" cy="59.5" rx="20" ry="44"/><ellipse cx="70" cy="59.5" rx="20" ry="44"/><ellipse cx="60" cy="58.5" rx="15" ry="45"/></g><g stroke="#b85a12" stroke-width="2"><ellipse cx="40" cy="61.5" fill="#e97e1e" rx="25" ry="42"/><ellipse cx="80" cy="61.5" fill="#e97e1e" rx="25" ry="42"/><ellipse cx="50" cy="59.5" fill="#f28c28" rx="20" ry="44"/><ellipse cx="70" cy="59.5" fill="#f28c28" rx="20" ry="44"/><ellipse cx="60" cy="58.5" fill="#f79a38" rx="15" ry="45"/></g><path fill="#ffd9a0" d="M53 19c-5 7-7 17-7 27 3-9 6-17 11-24Z" opacity=".8"/><path fill="#ffc27a" d="M24 38c-4 7-5 15-4 22 2-7 4-13 8-18Z" opacity=".7"/><path fill="url(#a)" stroke="#2b2140" stroke-linejoin="round" stroke-width="3" d="m32 52 21 3q-4 9-11 9-8-2-10-12Zm56-2-21 5q4 8 11 7.5Q86 60 88 50Z"/><g fill="#2b2140"><circle cx="45" cy="58.3" r="2.8"/><circle cx="75" cy="57.6" r="2.8"/></g><g fill="#fff"><circle cx="46" cy="57.4" r=".9"/><circle cx="76" cy="56.7" r=".9"/></g><path fill="url(#a)" stroke="#2b2140" stroke-linejoin="round" stroke-width="3" d="m57.5 72 2.5-5 2.5 5Z"/><path fill="url(#a)" stroke="#2b2140" stroke-linejoin="round" stroke-width="3" d="m32 80 2 .2 2 .3 2 .2 2 .2 2 .2 2 .1 2 .1h2l2 .1 1-.1.6 5.5h.4l2-.1 2-.2 1.4-.2.6-5.5 2-.3 2-.3 2-.4 2-.5 1-.3.6 5 .4-.3 2-.5 2-.7 1.4-.7.6-5 2-.7 2-.8 2-.8 2-.8 2-.9 2-.9 2-.9-2 3.7-2 2.7-2 2.4-2 2.3-2 2-2 1.9-2 1.7-2 1.5-2 1.4-2 1.1-2 1-2 .8-2 .6-2 .4-2 .2-2 .1-2-.2-2-.3-2-.5-2-.8-2-.8-2-1.1-2-1.2-2-1.4-2-1.6-2-1.8-2-2.1z"/></svg>