<svg xmlns="http://www.w3.org/2000/svg" viewBox="0 0 120 80"><g fill="#2E8B57" stroke="#1D5C3A" stroke-width="2" stroke-linejoin="round"><path d="M60 44C52 40 46 30 34 32C38 26 32 20 24 22C26 14 18 10 8 12C12 20 10 28 16 32C12 38 18 44 26 42C26 50 34 54 40 48C46 54 54 50 60 44Z"/><path d="M60 44C68 40 74 30 86 32C82 26 88 20 96 22C94 14 102 10 112 12C108 20 110 28 104 32C108 38 102 44 94 42C94 50 86 54 80 48C74 54 66 50 60 44Z"/></g><path fill="none" stroke="#1D5C3A" stroke-width="1.6" stroke-linecap="round" d="M58 43C44 34 26 24 12 14M62 43C76 34 94 24 108 14"/><g fill="#D6293A" stroke="#8E1422" stroke-width="1.8"><circle cx="52" cy="54" r="8"/><circle cx="68" cy="54" r="8"/><circle cx="60" cy="66" r="8"/></g><g fill="#F7F7FB"><circle cx="49.5" cy="51.5" r="2"/><circle cx="65.5" cy="51.5" r="2"/><circle cx="57.5" cy="63.5" r="2"/></g></svg>
