<svg xmlns="http://www.w3.org/2000/svg" viewBox="0 0 180 240"><defs><radialGradient id="a" cx=".4" cy=".36" r=".7"><stop offset=".74" stop-color="#fff"/><stop offset=".74" stop-color="#dceaf6"/><stop offset=".86" stop-color="#dceaf6"/><stop offset=".86" stop-color="#bfd6ea"/></radialGradient></defs><g stroke-linecap="round" stroke-linejoin="round"><path fill="none" stroke="#3a2a2a" stroke-width="7" d="m148 118 26-88"/><path fill="none" stroke="#c98e12" stroke-width="3.5" d="m148 118 26-88"/><circle cx="174" cy="30" r="3.2" fill="#d7263d" stroke="#3a2a2a" stroke-width="2"/><path fill="none" stroke="#6e4a2f" stroke-width="4.5" d="m58 128-32-20m10 6-6-12m92 26 28-16m-10 6 6 10"/><g fill="url(#a)" stroke="#5e8fc2" stroke-width="3"><circle cx="90" cy="192" r="44"/><circle cx="90" cy="130" r="32"/><circle cx="90" cy="72" r="28"/></g><circle cx="150" cy="112" r="7" fill="#2e8b57" stroke="#3a2a2a" stroke-width="2.5"/><g fill="#3a2a2a"><circle cx="90" cy="130" r="4"/><circle cx="90" cy="146" r="4"/><circle cx="90" cy="176" r="4.5"/><circle cx="90" cy="194" r="4.5"/></g><path fill="#2e8b57" stroke="#3a2a2a" stroke-width="3" d="m104 102 14 2-4 34-12-2Z"/><path fill="none" stroke="#7dbb5a" stroke-width="3" d="m106 114 10 1.5m-11.5 9.5 10.5 1.5"/><path fill="none" stroke="#3a2a2a" stroke-width="2.4" d="m104 137-1 6m6-5-.5 6m5.5-5.5v5.5"/><path fill="#2e8b57" stroke="#3a2a2a" stroke-width="3" d="M62 94q28 14 56 0l2 12q-30 16-60 0Z"/><path fill="none" stroke="#7dbb5a" stroke-width="3" d="m72 100-1 10m13-6v10m12-10v10m12-14 1 10"/><ellipse cx="70" cy="80" fill="#f5a3b0" opacity=".7" rx="5" ry="3.2"/><ellipse cx="110" cy="80" fill="#f5a3b0" opacity=".7" rx="5" ry="3.2"/><circle cx="80" cy="69" r="3.4" fill="#3a2a2a"/><circle cx="100" cy="69" r="3.4" fill="#3a2a2a"/><circle cx="81.2" cy="67.6" r="1.2" fill="#fff"/><circle cx="101.2" cy="67.6" r="1.2" fill="#fff"/><g fill="none" stroke="#3a2a2a" stroke-width="2.5"><circle cx="80" cy="69" r="8.5"/><circle cx="100" cy="69" r="8.5"/><path d="M88.5 68q1.5-2 3 0m-20-1L64 64m44.5 3 7.5-3"/></g><path fill="#f28c28" stroke="#3a2a2a" stroke-width="2.4" d="M89 76q12 2 25 8-14 1-25-1-3-3.5 0-7"/><path fill="none" stroke="#b85a12" stroke-width="1.8" d="m97 78.5-.5 3.5m7.5-2-.2 3.4"/><g fill="#3a2a2a"><circle cx="78" cy="87" r="2"/><circle cx="84" cy="90.5" r="2"/><circle cx="90" cy="91.6" r="2"/><circle cx="96" cy="90.5" r="2"/><circle cx="102" cy="87" r="2"/></g><path fill="#d7263d" stroke="#3a2a2a" stroke-width="3" d="M64 54c-2-22 12-34 28-34s26 12 24 34Z"/><path fill="#b01e30" d="M104 23c8 5 12 15 11 29h-9c2-12 1-22-2-29"/><rect width="60" height="12" x="60" y="48" fill="#fff" stroke="#3a2a2a" stroke-width="3" rx="6"/><path fill="none" stroke="#bfd6ea" stroke-width="2.4" d="M68 54h4m6 0h4m6 0h4m6 0h4m6 0h4"/><circle cx="92" cy="13" r="9" fill="#fff" stroke="#3a2a2a" stroke-width="3"/><circle cx="94.5" cy="15.5" r="4" fill="#dceaf6"/><g stroke="#3a2a2a" stroke-width="2.5"><path fill="#5e8fc2" d="M4 92q12-4 22 2 10-6 22-2v32q-12-4-22 2-10-6-22-2Z"/><path fill="#fff" d="M7 88q10-4 19 2v31q-9-5-19-1Zm38 0q-10-4-19 2v31q9-5 19-1Z"/></g><path fill="none" stroke="#8db8e0" stroke-width="2" d="M11 95q5-2 10 1m-10 6q5-2 10 1m-10 6q5-2 10 1m10-14q5-3 10-1m-10 8q5-3 10-1m-10 8q5-3 10-1"/><circle cx="26" cy="116" r="6.5" fill="#2e8b57" stroke="#3a2a2a" stroke-width="2.5"/><path fill="#d7263d" stroke="#3a2a2a" stroke-width="3" d="M156 206c-8-6-20-2-20 12 0 12 10 18 15 18 3 0 4-1 5-1s2 1 5 1c5 0 15-6 15-18 0-14-12-18-20-12"/><path fill="#b01e30" d="M170 212c3 8 1 16-6 21 6-1 11-9 10.5-16Z"/><ellipse cx="143" cy="214" fill="#fff" opacity=".85" rx="3" ry="5" transform="rotate(20 143 214)"/><path fill="none" stroke="#6e4a2f" stroke-width="3" d="M156 206q0-7 3-11"/><path fill="#7dbb5a" stroke="#3a2a2a" stroke-width="2.2" d="M158 200q6-8 14-4-6 8-14 4"/></g></svg>