<svg xmlns="http://www.w3.org/2000/svg" stroke-linecap="round" stroke-linejoin="round" viewBox="0 0 180 110"><defs><g id="e"><use fill="none" stroke="#3a2a20" stroke-width="11.2" href="#a"/><use fill="none" stroke="#8a5a33" stroke-width="4.2" href="#a"/><use href="#b"/><use fill="#5a1a00" clip-path="url(#c)" href="#b" opacity=".2"/><use fill="none" stroke="#fff" stroke-width="3.9" href="#d" opacity=".4"/><use fill="none" stroke="#3a2a20" stroke-width="7" href="#b"/></g><g id="f"><use fill="none" stroke="#3a2a20" stroke-width="12.8" href="#a"/><use fill="none" stroke="#8a5a33" stroke-width="4.8" href="#a"/><use href="#b"/><use fill="#5a1a00" clip-path="url(#c)" href="#b" opacity=".2"/><use fill="none" stroke="#fff" stroke-width="4.4" href="#d" opacity=".4"/><use fill="none" stroke="#3a2a20" stroke-width="8" href="#b"/></g><g id="g"><use fill="none" stroke="#3a2a20" stroke-width="14.4" href="#a"/><use fill="none" stroke="#8a5a33" stroke-width="5.4" href="#a"/><use href="#b"/><use fill="#5a1a00" clip-path="url(#c)" href="#b" opacity=".2"/><use fill="none" stroke="#fff" stroke-width="5" href="#d" opacity=".4"/><use fill="none" stroke="#3a2a20" stroke-width="9" href="#b"/></g><g id="h"><use fill="none" stroke="#3a2a20" stroke-width="9.6" href="#a"/><use fill="none" stroke="#8a5a33" stroke-width="3.6" href="#a"/><use href="#b"/><use fill="#5a1a00" clip-path="url(#c)" href="#b" opacity=".2"/><use fill="none" stroke="#fff" stroke-width="3.3" href="#d" opacity=".4"/><use fill="none" stroke="#3a2a20" stroke-width="6" href="#b"/></g><path id="b" d="m0-50 7 13 6-4-2 16-5 13 13-10 3-7 4 7 17-8-6 15 5 5-14 7-7 7 10 7-12 1-12 1-7 4-7-4-12-1-12-1 10-7-7-7-14-7 5-5-6-15 17 8 4-7 3 7 13 10-5-13-2-16 6 4Z"/><path id="d" d="M0 16v-56m0 50 33-32M0 10l-33-32M0 13l22-5M0 13l-22-5"/><path id="a" d="M0 12q1 12-2 20"/><clipPath id="c"><path d="M0-60h60V60H0Z"/></clipPath></defs><path fill="none" stroke="#3a2a20" stroke-width="10" d="M-4 6c34 2 64 10 96 22 26 10 48 16 74 30"/><path fill="none" stroke="#8a5a33" stroke-width="5" d="M-4 6c34 2 64 10 96 22 26 10 48 16 74 30"/><path fill="none" stroke="#3a2a20" stroke-width="6.5" d="M58 15C64 6 70 3 78 2"/><path fill="none" stroke="#8a5a33" stroke-width="2.6" d="M58 15C64 6 70 3 78 2"/><path fill="none" stroke="#3a2a20" stroke-width="6.5" d="M104 33c8-7 14-9 22-9"/><path fill="none" stroke="#8a5a33" stroke-width="2.6" d="M104 33c8-7 14-9 22-9"/><path fill="none" stroke="#3a2a20" stroke-width="6.5" d="M126 43c6 11 8 19 8 27"/><path fill="none" stroke="#8a5a33" stroke-width="2.6" d="M126 43c6 11 8 19 8 27"/><path fill="none" stroke="#3a2a20" stroke-width="6.5" d="M40 11c4 11 4 19 2 27"/><path fill="none" stroke="#8a5a33" stroke-width="2.6" d="M40 11c4 11 4 19 2 27"/><path fill="none" stroke="#b3825a" stroke-width="1.6" d="M6 6c24 3 52 10 80 20"/><use fill="#f2b632" href="#e" transform="rotate(40 34.5 111.9)scale(.42)"/><use fill="#f28c28" href="#f" transform="rotate(70 46.4 105.8)scale(.34)"/><use fill="#d9502b" href="#g" transform="rotate(170 64.2 44)scale(.3)"/><use fill="#d9502b" href="#h" transform="rotate(175 21 23)scale(.56)"/><use fill="#f28c28" href="#e" transform="rotate(240 15.8 4.2)scale(.44)"/><use fill="#f28c28" href="#f" transform="rotate(150 39.3 37.3)scale(.4)"/><use fill="#f2b632" href="#f" transform="rotate(200 11.6 31)scale(.4)"/></svg>